<svg width="24" height="24" viewBox="0 0 24 24" fill="none" xmlns="http://www.w3.org/2000/svg">
<path d="M9.02601 18.9913C4.70737 20.3974 4.70737 16.4805 3 15.9783M15.052 21V17.4848C15.052 16.4805 15.1524 16.0788 14.5498 15.4762C17.362 15.1749 20.0737 14.0701 20.0737 9.45015C20.0725 8.24994 19.6042 7.0973 18.7681 6.23628C19.1602 5.19375 19.1241 4.03842 18.6676 3.02241C18.6676 3.02241 17.5629 2.72111 15.1525 4.32804C13.1109 3.79634 10.9671 3.79634 8.92557 4.32804C6.51517 2.72111 5.4104 3.02241 5.4104 3.02241C4.95391 4.03842 4.91781 5.19375 5.30997 6.23628C4.47381 7.0973 4.00556 8.24994 4.00433 9.45015C4.00433 14.0701 6.71604 15.1749 9.52818 15.4762C8.92557 16.0788 8.92557 16.6814 9.02601 17.4848V21" stroke="white" stroke-width="1.5" stroke-linecap="round" stroke-linejoin="round"/>
</svg>
