<svg width="24" height="24" viewBox="0 0 24 24" fill="none" xmlns="http://www.w3.org/2000/svg">
<path fill-rule="evenodd" clip-rule="evenodd" d="M15.0215 3.34348C15.5299 3.25639 16.0992 3.22732 16.6349 3.31796C17.5918 3.47984 18.4756 3.92457 19.1743 4.59133C19.631 4.60166 20.0798 4.51169 20.4769 4.38342C20.8131 4.27487 21.097 4.1438 21.2959 4.04016C21.3948 3.98863 21.4713 3.94467 21.5209 3.91492C21.5457 3.90006 21.5638 3.88881 21.5745 3.88202L21.584 3.87596C21.8808 3.67823 22.276 3.71672 22.5289 3.96822C22.7818 4.21979 22.8226 4.61471 22.6263 4.91261C22.4186 5.22791 22.1303 5.78998 21.8072 6.41973C21.7564 6.51875 21.7047 6.61945 21.6524 6.72112C21.4671 7.08108 21.2771 7.4449 21.1 7.75703C20.9888 7.95301 20.8699 8.15199 20.75 8.32393V8.59771C20.7576 9.60333 20.6423 10.6037 20.4082 11.5769C20.2609 12.1893 20.0667 12.7909 19.8264 13.3763C19.204 14.8929 18.2856 16.2704 17.1249 17.4281C15.9641 18.5859 14.5844 19.5007 13.0661 20.1193C11.5492 20.7372 9.92444 21.047 8.28659 21.0306C5.91228 21.0327 3.58791 20.3486 1.59319 19.0607C1.29939 18.871 1.17569 18.5034 1.29503 18.1747C1.41437 17.8459 1.74506 17.6433 2.09213 17.6863C2.39249 17.7235 2.6949 17.7416 2.99756 17.7406C4.08501 17.7376 5.15174 17.4973 6.12561 17.0446C5.81606 16.9037 5.52052 16.73 5.24437 16.5252C4.43265 15.9233 3.82874 15.0833 3.51667 14.1222C3.43558 13.8725 3.49102 13.5985 3.66283 13.3999C3.66591 13.3963 3.66902 13.3928 3.67215 13.3893C3.48862 13.2257 3.3169 13.0475 3.1588 12.8559C2.44748 11.9936 2.05581 10.9122 2.05002 9.79448L2.05 9.7906L2.05001 9.7406C2.05001 9.47474 2.19077 9.22874 2.41997 9.09402C2.47807 9.05987 2.53965 9.03416 2.603 9.01692C2.26467 8.34184 2.08873 7.59639 2.09001 6.84014C2.08961 5.98337 2.31341 5.1414 2.73917 4.3979C2.86208 4.18326 3.08291 4.04303 3.32944 4.02305C3.57597 4.00307 3.8165 4.10593 3.97236 4.29797C4.93491 5.48399 6.1362 6.45424 7.49819 7.14571C8.19833 7.50117 8.93288 7.77886 9.68867 7.9753C10.1124 8.08543 10.5428 8.17001 10.9776 8.22844C10.9584 7.50518 11.1013 6.78231 11.401 6.11438C11.8407 5.13456 12.5931 4.32838 13.5404 3.82229C13.9415 3.60796 14.474 3.43725 15.0215 3.34348ZM3.74329 10.891C3.87294 11.2559 4.0658 11.5982 4.31586 11.9013C4.80718 12.4968 5.48913 12.9044 6.24635 13.055C6.58363 13.1221 6.83207 13.41 6.84909 13.7535C6.86612 14.0969 6.64737 14.408 6.31837 14.5081C6.04588 14.591 5.7667 14.6488 5.48434 14.6809C5.67093 14.9214 5.8904 15.1369 6.13781 15.3203C6.699 15.7364 7.37594 15.9673 8.07445 15.9807C8.39137 15.9868 8.67023 16.1915 8.77106 16.492C8.87189 16.7925 8.7729 17.124 8.5238 17.32C7.47463 18.1455 6.26143 18.7212 4.97588 19.0151C6.04136 19.3563 7.15881 19.532 8.2891 19.5306L8.2978 19.5306C9.73786 19.5455 11.1665 19.2735 12.5002 18.7301C13.8339 18.1868 15.0459 17.3831 16.0656 16.3661C17.0852 15.3491 17.892 14.1391 18.4387 12.8068C18.6498 12.2925 18.8204 11.7641 18.9498 11.2262C19.1556 10.3704 19.257 9.49073 19.25 8.60646L19.25 8.6006V8.0706C19.25 7.88875 19.3161 7.71309 19.4359 7.57632C19.5052 7.49727 19.6264 7.31472 19.7954 7.01682C19.956 6.73369 20.1338 6.39379 20.3187 6.0346C20.3299 6.01288 20.3411 5.99104 20.3524 5.96911C19.8728 6.07325 19.3293 6.12784 18.7594 6.06626C18.579 6.04675 18.4117 5.96247 18.2887 5.82903C17.7858 5.28369 17.1161 4.92068 16.3847 4.79694C16.0602 4.74204 15.6678 4.75461 15.2747 4.82194C14.8476 4.8951 14.4759 5.02312 14.2472 5.14529C13.593 5.49486 13.0732 6.05171 12.7695 6.72849C12.4658 7.40528 12.3953 8.16372 12.5691 8.88488C12.6245 9.11479 12.5683 9.35737 12.4173 9.5394C12.2663 9.72143 12.0383 9.82159 11.8021 9.80964C10.9587 9.76698 10.1242 9.63833 9.31135 9.42706C8.45146 9.20357 7.61572 8.88763 6.81915 8.48321C5.64637 7.8878 4.57832 7.11071 3.65348 6.18302C3.61129 6.39863 3.58987 6.61866 3.59001 6.8401L3.59001 6.84202C3.58897 7.39274 3.72412 7.93517 3.98343 8.42102C4.24274 8.90687 4.61816 9.32106 5.07627 9.62672C5.35429 9.81222 5.47602 10.1593 5.37477 10.4778C5.27351 10.7963 4.97372 11.0094 4.63962 11.0003C4.33702 10.9921 4.03696 10.9553 3.74329 10.891Z" fill="white"/>
</svg>
